# xmcd CD database file
#
# Track frame offsets:
#	150
#	16285
#	35502
#	53740
#	65687
#	81915
#	92987
#	104400
#	118312
#	132425
#	139702
#	152272
#	160800
#	176890
#	186109
#	205377
#
# Disc length: 2928 seconds
#
# Revision: 0
# Processed by: cddbd v1.4PL0 Copyright (c) Steve Scherf et al.
# Submitted via: CDex 1.50Beta7
#
DISCID=e30b6e10
DTITLE=Ella Fitzgerald - How High The Moon
DYEAR=1996
DGENRE=Jazz
TTITLE0=How High The Moon
TTITLE1=Flying Home
TTITLE2=Oh Johnny
TTITLE3=As You Desire Me
TTITLE4=There's A Small Hotel
TTITLE5=Robbin's Nest
TTITLE6=Diga, Diga, Doo
TTITLE7=Blue Lou
TTITLE8=I Want The Waiter With The Water
TTITLE9=Lemon Drop
TTITLE10=Sing Song Swing
TTITLE11=Old Mother Hubbard
TTITLE12=Limehouse Blues
TTITLE13=Thou Swell
TTITLE14=Mr. Paganini
TTITLE15=Starlit Hour
EXTD=YEAR: 1996
EXTT0=
EXTT1=
EXTT2=
EXTT3=
EXTT4=
EXTT5=
EXTT6=
EXTT7=
EXTT8=
EXTT9=
EXTT10=
EXTT11=
EXTT12=
EXTT13=
EXTT14=
EXTT15=
PLAYORDER=
